<?xml version="1.0" encoding="UTF-8"?>
<svg xmlns="http://www.w3.org/2000/svg" xmlns:xlink="http://www.w3.org/1999/xlink" width="48px" height="48px" viewBox="0 0 48 48" version="1.1">
<defs>
<linearGradient id="linear0" gradientUnits="userSpaceOnUse" x1="204.955994" y1="496.141998" x2="304.06601" y2="29.862801" gradientTransform="matrix(0.09375,0,0,0.09375,0,0)">
<stop offset="0" style="stop-color:rgb(51.764706%,17.254902%,0%);stop-opacity:1;"/>
<stop offset="0.136672" style="stop-color:rgb(51.764706%,17.254902%,0%);stop-opacity:1;"/>
<stop offset="0.5538" style="stop-color:rgb(98.823529%,35.294118%,0%);stop-opacity:1;"/>
<stop offset="0.988604" style="stop-color:rgb(96.862745%,58.039216%,11.372549%);stop-opacity:1;"/>
<stop offset="1" style="stop-color:rgb(96.862745%,58.039216%,11.372549%);stop-opacity:1;"/>
</linearGradient>
<linearGradient id="linear1" gradientUnits="userSpaceOnUse" x1="243.373001" y1="415.842987" x2="313.53299" y2="85.293701" gradientTransform="matrix(0.09375,0,0,0.09375,0,0)">
<stop offset="0" style="stop-color:rgb(51.764706%,17.254902%,0%);stop-opacity:1;"/>
<stop offset="0.136672" style="stop-color:rgb(51.764706%,17.254902%,0%);stop-opacity:1;"/>
<stop offset="0.5538" style="stop-color:rgb(98.823529%,35.294118%,0%);stop-opacity:1;"/>
<stop offset="0.988604" style="stop-color:rgb(96.862745%,58.039216%,11.372549%);stop-opacity:1;"/>
<stop offset="1" style="stop-color:rgb(96.862745%,58.039216%,11.372549%);stop-opacity:1;"/>
</linearGradient>
<linearGradient id="linear2" gradientUnits="userSpaceOnUse" x1="325.690002" y1="394.027008" x2="405.833008" y2="261.143005" gradientTransform="matrix(0.09375,0,0,0.09375,0,0)">
<stop offset="0" style="stop-color:rgb(51.764706%,17.254902%,0%);stop-opacity:1;"/>
<stop offset="0.136672" style="stop-color:rgb(51.764706%,17.254902%,0%);stop-opacity:1;"/>
<stop offset="0.5538" style="stop-color:rgb(98.823529%,35.294118%,0%);stop-opacity:1;"/>
<stop offset="0.988604" style="stop-color:rgb(96.862745%,58.039216%,11.372549%);stop-opacity:1;"/>
<stop offset="1" style="stop-color:rgb(96.862745%,58.039216%,11.372549%);stop-opacity:1;"/>
</linearGradient>
</defs>
<g id="surface1">
<path style=" stroke:none;fill-rule:nonzero;fill:url(#linear0);" d="M 0 24 C 0 37.234375 10.765625 48 24 48 C 37.234375 48 48 37.234375 48 24 C 48 10.765625 37.234375 0 24 0 C 10.765625 0 0 10.765625 0 24 Z M 1.539062 24 C 1.539062 11.613281 11.613281 1.539062 24 1.539062 C 36.386719 1.539062 46.460938 11.613281 46.460938 24 C 46.460938 36.386719 36.386719 46.460938 24 46.460938 C 11.613281 46.460938 1.539062 36.386719 1.539062 24 Z M 1.539062 24 "/>
<path style=" stroke:none;fill-rule:nonzero;fill:url(#linear1);" d="M 22.640625 7.042969 C 21.5625 7.3125 20.605469 7.964844 19.964844 8.890625 C 19.914062 8.957031 19.871094 9.027344 19.828125 9.097656 C 19.800781 9.136719 19.777344 9.179688 19.753906 9.21875 L 19.09375 10.367188 L 18.992188 10.542969 L 18.222656 11.882812 L 18.140625 12.019531 L 16.15625 15.464844 L 16.089844 15.582031 L 15.363281 16.84375 L 15.28125 16.984375 L 14.566406 18.222656 L 14.464844 18.40625 L 11.953125 22.765625 L 11.851562 22.9375 L 11.253906 23.976562 L 11.179688 24.101562 L 10.050781 26.058594 L 9.511719 27 L 8.902344 28.058594 L 8.816406 28.207031 L 7.21875 30.980469 L 7.050781 31.273438 L 6.84375 31.628906 L 6.722656 31.84375 L 6.222656 32.710938 C 6.203125 32.746094 6.183594 32.785156 6.164062 32.824219 C 6.15625 32.828125 6.15625 32.832031 6.15625 32.835938 C 6.035156 33.078125 5.972656 33.328125 5.953125 33.574219 C 5.871094 34.621094 6.613281 35.625 7.71875 35.773438 C 7.765625 35.785156 7.8125 35.789062 7.859375 35.792969 C 7.910156 35.792969 7.960938 35.796875 8.011719 35.796875 L 10.167969 35.796875 L 10.234375 35.699219 L 10.304688 35.59375 L 11.636719 33.6875 L 11.71875 33.566406 L 12.902344 31.863281 L 12.976562 31.761719 L 13.597656 30.867188 L 13.671875 30.757812 L 14.042969 30.230469 C 14.511719 29.550781 15.285156 29.199219 16.054688 29.234375 C 16.09375 29.234375 16.136719 29.238281 16.179688 29.242188 C 16.480469 29.269531 16.777344 29.355469 17.054688 29.507812 C 17.09375 29.523438 17.132812 29.546875 17.171875 29.570312 C 17.210938 29.59375 17.253906 29.621094 17.292969 29.648438 C 17.941406 30.101562 18.292969 30.828125 18.292969 31.566406 L 18.292969 31.582031 C 18.292969 31.636719 18.289062 31.691406 18.285156 31.75 C 18.253906 32.144531 18.121094 32.539062 17.878906 32.894531 L 16.902344 34.292969 L 16.832031 34.398438 L 16.335938 35.105469 L 16.242188 35.238281 L 16.117188 35.421875 L 15.941406 35.671875 L 15.855469 35.796875 L 18.972656 35.796875 C 19.027344 35.796875 19.085938 35.792969 19.144531 35.792969 C 20.234375 35.742188 21.242188 35.183594 21.875 34.289062 L 23.679688 31.710938 L 24.875 30 L 26.867188 27.160156 C 26.984375 26.992188 27.125 26.847656 27.285156 26.726562 C 27.371094 26.664062 27.460938 26.605469 27.550781 26.558594 C 27.609375 26.527344 27.664062 26.503906 27.722656 26.480469 C 27.757812 26.464844 27.796875 26.449219 27.832031 26.4375 C 27.886719 26.417969 27.9375 26.402344 27.992188 26.390625 C 28.039062 26.378906 28.089844 26.367188 28.140625 26.363281 C 28.152344 26.359375 28.164062 26.355469 28.175781 26.355469 C 28.214844 26.347656 28.257812 26.34375 28.300781 26.339844 L 28.304688 26.339844 C 28.355469 26.335938 28.40625 26.335938 28.457031 26.335938 C 28.859375 26.335938 29.261719 26.460938 29.609375 26.714844 C 29.65625 26.75 29.703125 26.785156 29.746094 26.824219 C 29.78125 26.855469 29.8125 26.882812 29.839844 26.914062 C 29.886719 26.960938 29.929688 27.011719 29.96875 27.058594 C 30.003906 27.101562 30.039062 27.148438 30.066406 27.195312 C 30.136719 27.296875 30.195312 27.402344 30.242188 27.515625 C 30.257812 27.546875 30.269531 27.582031 30.28125 27.617188 C 30.296875 27.652344 30.304688 27.6875 30.316406 27.722656 C 30.339844 27.792969 30.355469 27.867188 30.367188 27.941406 C 30.382812 28.015625 30.390625 28.089844 30.394531 28.164062 C 30.40625 28.4375 30.367188 28.71875 30.261719 28.984375 C 30.207031 29.121094 30.136719 29.253906 30.046875 29.378906 L 29.996094 29.453125 L 29.996094 29.457031 L 29.125 30.703125 L 28.035156 32.265625 L 27.625 32.851562 C 27.539062 32.976562 27.46875 33.105469 27.414062 33.238281 C 27.378906 33.328125 27.351562 33.417969 27.332031 33.507812 C 27.320312 33.550781 27.3125 33.597656 27.304688 33.644531 C 27.285156 33.765625 27.28125 33.886719 27.289062 34.007812 C 27.289062 34.039062 27.292969 34.070312 27.292969 34.097656 C 27.304688 34.1875 27.320312 34.277344 27.339844 34.363281 C 27.347656 34.390625 27.351562 34.414062 27.359375 34.4375 C 27.394531 34.554688 27.441406 34.671875 27.496094 34.785156 C 27.511719 34.808594 27.523438 34.832031 27.535156 34.851562 C 27.566406 34.90625 27.601562 34.957031 27.636719 35.007812 C 27.636719 35.011719 27.636719 35.011719 27.636719 35.011719 C 27.667969 35.050781 27.695312 35.089844 27.726562 35.125 C 27.746094 35.148438 27.761719 35.167969 27.78125 35.191406 C 27.8125 35.222656 27.84375 35.253906 27.875 35.285156 C 27.878906 35.289062 27.882812 35.296875 27.890625 35.296875 C 27.929688 35.335938 27.96875 35.367188 28.011719 35.402344 C 28.015625 35.40625 28.015625 35.40625 28.019531 35.410156 C 28.042969 35.429688 28.066406 35.445312 28.09375 35.464844 C 28.113281 35.480469 28.136719 35.492188 28.15625 35.507812 C 28.199219 35.53125 28.242188 35.558594 28.285156 35.582031 C 28.320312 35.601562 28.359375 35.621094 28.398438 35.636719 C 28.402344 35.640625 28.402344 35.640625 28.402344 35.640625 C 28.445312 35.660156 28.488281 35.671875 28.53125 35.6875 C 28.609375 35.714844 28.695312 35.742188 28.78125 35.757812 C 28.808594 35.765625 28.835938 35.769531 28.863281 35.773438 C 28.914062 35.78125 28.96875 35.789062 29.019531 35.789062 C 29.070312 35.792969 29.117188 35.796875 29.164062 35.796875 L 39.792969 35.796875 C 39.941406 35.796875 40.089844 35.78125 40.226562 35.753906 C 40.261719 35.746094 40.296875 35.738281 40.332031 35.730469 C 40.433594 35.703125 40.53125 35.671875 40.628906 35.628906 C 40.667969 35.613281 40.707031 35.59375 40.746094 35.578125 C 40.777344 35.5625 40.8125 35.542969 40.84375 35.523438 C 40.847656 35.519531 40.851562 35.519531 40.855469 35.515625 C 40.945312 35.46875 41.027344 35.410156 41.105469 35.351562 C 41.117188 35.339844 41.132812 35.328125 41.148438 35.316406 C 41.1875 35.285156 41.21875 35.253906 41.253906 35.222656 C 41.292969 35.183594 41.332031 35.144531 41.367188 35.105469 C 41.402344 35.070312 41.433594 35.035156 41.464844 34.996094 C 41.511719 34.9375 41.554688 34.875 41.597656 34.8125 C 41.613281 34.789062 41.628906 34.761719 41.640625 34.734375 C 41.675781 34.675781 41.710938 34.609375 41.742188 34.546875 C 41.753906 34.515625 41.765625 34.488281 41.777344 34.460938 C 41.804688 34.390625 41.832031 34.320312 41.851562 34.246094 C 41.863281 34.210938 41.871094 34.179688 41.878906 34.144531 C 41.886719 34.113281 41.894531 34.082031 41.898438 34.054688 C 41.898438 34.042969 41.902344 34.03125 41.902344 34.019531 L 41.910156 33.984375 C 41.917969 33.945312 41.921875 33.902344 41.925781 33.859375 C 41.929688 33.816406 41.933594 33.773438 41.933594 33.726562 C 41.949219 33.34375 41.855469 32.941406 41.632812 32.570312 L 39.160156 28.398438 L 39.0625 28.234375 L 38.761719 27.730469 L 38.253906 26.875 L 38.242188 26.855469 L 38.175781 26.742188 L 36.160156 23.347656 L 36.066406 23.191406 L 36.003906 23.085938 L 34.769531 21.007812 L 34.703125 20.890625 L 34.386719 20.359375 L 34.257812 20.144531 L 34.101562 19.882812 L 33.269531 18.476562 L 33.078125 18.152344 L 32.941406 17.925781 L 29.597656 12.289062 L 29.535156 12.183594 L 28.417969 10.300781 L 28.351562 10.1875 L 27.746094 9.167969 C 27.652344 9.011719 27.550781 8.863281 27.441406 8.722656 C 27.390625 8.652344 27.335938 8.582031 27.277344 8.519531 C 27.265625 8.5 27.25 8.484375 27.230469 8.464844 C 27.191406 8.421875 27.152344 8.375 27.109375 8.332031 C 26.8125 8.023438 26.480469 7.761719 26.117188 7.546875 C 26.097656 7.53125 26.074219 7.519531 26.054688 7.507812 C 25.964844 7.457031 25.871094 7.40625 25.777344 7.363281 C 25.421875 7.191406 25.042969 7.066406 24.652344 6.992188 C 24.363281 6.933594 24.066406 6.90625 23.765625 6.90625 C 23.382812 6.90625 23.003906 6.953125 22.640625 7.042969 Z M 22.640625 7.042969 "/>
<path style=" stroke:none;fill-rule:nonzero;fill:url(#linear2);" d="M 28.613281 24.019531 C 28.585938 24.054688 28.558594 24.09375 28.53125 24.132812 C 27.914062 24.984375 27.554688 25.894531 27.394531 26.378906 C 27.378906 26.417969 27.363281 26.460938 27.355469 26.496094 C 27.304688 26.640625 27.285156 26.726562 27.285156 26.726562 C 27.371094 26.664062 27.460938 26.605469 27.554688 26.558594 C 27.609375 26.527344 27.664062 26.503906 27.722656 26.480469 C 27.761719 26.460938 27.796875 26.449219 27.835938 26.4375 C 27.886719 26.417969 27.941406 26.402344 27.992188 26.390625 C 28.042969 26.378906 28.089844 26.367188 28.140625 26.363281 C 28.152344 26.359375 28.164062 26.355469 28.175781 26.355469 C 28.21875 26.347656 28.261719 26.34375 28.300781 26.339844 L 28.304688 26.339844 C 28.355469 26.335938 28.40625 26.335938 28.460938 26.335938 C 28.859375 26.335938 29.265625 26.460938 29.609375 26.714844 C 29.65625 26.75 29.703125 26.785156 29.746094 26.824219 C 29.78125 26.855469 29.8125 26.882812 29.839844 26.914062 C 29.886719 26.960938 29.929688 27.011719 29.96875 27.058594 C 30.007812 27.101562 30.039062 27.148438 30.070312 27.195312 C 30.136719 27.296875 30.195312 27.402344 30.242188 27.515625 C 30.257812 27.546875 30.269531 27.582031 30.28125 27.617188 C 30.296875 27.652344 30.308594 27.6875 30.316406 27.722656 C 30.339844 27.792969 30.355469 27.867188 30.367188 27.941406 C 30.378906 28.015625 30.390625 28.089844 30.394531 28.164062 C 30.410156 28.4375 30.367188 28.71875 30.261719 28.984375 C 30.207031 29.121094 30.136719 29.253906 30.050781 29.378906 L 29.996094 29.453125 L 29.996094 29.457031 L 29.125 30.703125 L 28.035156 32.265625 L 27.625 32.851562 C 27.539062 32.976562 27.46875 33.105469 27.417969 33.238281 C 27.382812 33.328125 27.355469 33.417969 27.332031 33.507812 C 27.320312 33.550781 27.3125 33.597656 27.304688 33.644531 C 27.285156 33.765625 27.28125 33.886719 27.289062 34.007812 C 27.289062 34.039062 27.292969 34.070312 27.296875 34.097656 C 27.304688 34.1875 27.320312 34.277344 27.339844 34.363281 C 27.347656 34.390625 27.355469 34.414062 27.359375 34.4375 C 27.394531 34.554688 27.441406 34.671875 27.5 34.785156 C 27.511719 34.804688 27.523438 34.828125 27.53125 34.847656 L 27.539062 34.851562 C 27.566406 34.90625 27.601562 34.957031 27.636719 35.007812 C 27.636719 35.011719 27.640625 35.011719 27.640625 35.011719 C 27.667969 35.050781 27.699219 35.089844 27.726562 35.125 C 27.746094 35.148438 27.761719 35.167969 27.78125 35.191406 C 27.8125 35.222656 27.84375 35.253906 27.875 35.285156 C 27.878906 35.289062 27.882812 35.296875 27.890625 35.296875 C 27.929688 35.335938 27.96875 35.367188 28.011719 35.402344 C 28.015625 35.40625 28.019531 35.40625 28.019531 35.410156 C 28.042969 35.429688 28.066406 35.445312 28.09375 35.464844 C 28.113281 35.480469 28.136719 35.492188 28.160156 35.507812 C 28.199219 35.53125 28.242188 35.558594 28.285156 35.582031 C 28.324219 35.601562 28.363281 35.621094 28.402344 35.636719 C 28.402344 35.640625 28.40625 35.640625 28.40625 35.640625 C 28.445312 35.660156 28.488281 35.671875 28.53125 35.6875 C 28.609375 35.714844 28.695312 35.742188 28.78125 35.757812 C 28.808594 35.765625 28.835938 35.769531 28.863281 35.773438 C 28.914062 35.78125 28.96875 35.789062 29.023438 35.789062 C 29.070312 35.792969 29.117188 35.796875 29.167969 35.796875 L 39.792969 35.796875 C 39.941406 35.796875 40.089844 35.78125 40.226562 35.753906 C 40.261719 35.746094 40.296875 35.738281 40.332031 35.730469 C 40.433594 35.703125 40.53125 35.671875 40.628906 35.628906 C 40.667969 35.613281 40.707031 35.59375 40.746094 35.578125 C 40.78125 35.5625 40.8125 35.542969 40.84375 35.523438 L 40.859375 35.519531 L 40.859375 35.515625 C 40.945312 35.46875 41.027344 35.410156 41.105469 35.351562 C 41.121094 35.339844 41.132812 35.328125 41.148438 35.316406 C 41.1875 35.285156 41.222656 35.253906 41.253906 35.222656 C 41.292969 35.183594 41.332031 35.144531 41.367188 35.105469 C 41.402344 35.070312 41.433594 35.035156 41.464844 34.996094 C 41.511719 34.9375 41.554688 34.875 41.597656 34.8125 C 41.613281 34.789062 41.628906 34.761719 41.644531 34.734375 C 41.675781 34.675781 41.710938 34.609375 41.742188 34.546875 C 41.753906 34.515625 41.765625 34.488281 41.777344 34.460938 C 41.808594 34.390625 41.832031 34.320312 41.851562 34.246094 C 41.863281 34.210938 41.871094 34.179688 41.878906 34.144531 C 41.886719 34.113281 41.894531 34.082031 41.898438 34.054688 C 41.902344 34.03125 41.90625 34.011719 41.910156 33.988281 L 41.910156 33.984375 C 41.917969 33.945312 41.921875 33.902344 41.925781 33.859375 C 41.929688 33.816406 41.933594 33.773438 41.933594 33.726562 C 41.949219 33.34375 41.855469 32.941406 41.632812 32.570312 L 39.160156 28.398438 L 39.0625 28.234375 L 38.761719 27.730469 L 38.253906 26.875 L 38.246094 26.855469 L 38.175781 26.742188 L 36.160156 23.347656 C 36.105469 23.3125 36.046875 23.277344 35.992188 23.242188 C 35.953125 23.21875 35.914062 23.199219 35.875 23.171875 C 34.984375 22.652344 33.847656 22.207031 32.503906 22.132812 C 32.460938 22.128906 32.417969 22.125 32.371094 22.125 C 32.28125 22.121094 32.191406 22.121094 32.097656 22.121094 C 30.5 22.121094 29.375 23.015625 28.613281 24.019531 Z M 28.613281 24.019531 "/>
<path style=" stroke:none;fill-rule:nonzero;fill:rgb(100%,100%,100%);fill-opacity:1;" d="M 18.292969 31.566406 C 18.292969 32.023438 18.160156 32.488281 17.878906 32.894531 L 15.859375 35.796875 L 10.167969 35.796875 L 14.042969 30.230469 C 14.777344 29.171875 16.234375 28.914062 17.292969 29.648438 C 17.945312 30.101562 18.292969 30.828125 18.292969 31.566406 Z M 18.292969 31.566406 "/>
<path style=" stroke:none;fill-rule:nonzero;fill:rgb(0%,0%,0%);fill-opacity:1;" d="M 16.550781 31.828125 C 16.550781 32.308594 16.160156 32.699219 15.679688 32.699219 C 15.195312 32.699219 14.804688 32.308594 14.804688 31.828125 C 14.804688 31.347656 15.195312 30.957031 15.679688 30.957031 C 16.160156 30.957031 16.550781 31.347656 16.550781 31.828125 Z M 16.550781 31.828125 "/>
</g>
</svg>
