<svg width="120" height="120" viewBox="0 0 120 120" fill="none" xmlns="http://www.w3.org/2000/svg">
<circle cx="60" cy="60" r="58.5" fill="#FD9D41" fill-opacity="0.1" stroke="#FC6432" stroke-width="3"/>
<path d="M74.1592 58.2282C73.9736 58.1807 73.9881 57.936 74.1774 57.8922C79.2252 57.0265 80.2989 51.1017 80.3243 48.4389C80.4081 38.1017 69.4862 36.7648 66.036 36.6004C65.4574 36.5712 65.0316 36.0817 65.0352 35.5082L65.057 27.1837C65.068 26.5773 64.6058 26.1207 64.0016 26.1098L61.7233 26.0915C61.1192 26.0805 60.6024 26.5371 60.5951 27.1435V35.4571C60.5915 36.0635 60.0565 36.4945 59.456 36.4981H54.0697C53.4655 36.4908 53.047 36.0525 53.0434 35.4534L53.0616 27.1179C53.0688 26.5116 52.5848 26.0257 51.9807 26.0148L49.706 26.0002C49.1019 25.9892 48.6179 26.4787 48.6069 27.085L48.5487 35.3548C48.5378 35.9612 48.0355 36.5018 47.4387 36.5054L44.7455 36.4835H37.1974C36.5933 36.4726 36.0583 36.8415 36.051 37.4478L36.0801 40.1545C36.0728 40.7609 36.5569 41.2138 37.161 41.2248L43.1915 41.2722C43.7956 41.2832 44.2688 41.7727 44.2724 42.3754L44.2251 76.3458C44.2142 76.9521 43.5118 77.4233 42.9113 77.4306L37.6814 77.3904C37.1646 77.3831 36.7134 77.7484 36.6078 78.2671L36.0182 81.2368C35.8836 81.9052 36.5168 82.654 37.1901 82.6577L47.082 82.6723C47.6862 82.6832 48.0974 83.1216 48.1011 83.7206L48.0901 92.6333C48.0792 93.2396 48.5669 93.7254 49.171 93.7364L51.4493 93.7547C52.0534 93.7656 52.6685 93.2762 52.6758 92.6698L52.654 83.7571C52.6649 83.1508 53.098 82.6577 53.6985 82.654L58.6917 82.6686C59.2959 82.6796 59.7872 83.191 59.7908 83.79V92.721C59.7799 93.3273 60.2166 93.8204 60.8171 93.8277L63.0954 93.846C63.6995 93.8569 64.1836 93.3017 64.1945 92.6954L64.2018 83.9361C64.2054 83.3188 64.7659 82.7819 65.3737 82.8038C69.73 82.9426 81.3288 83.0631 83.4797 71.7287C85.3795 61.7312 77.431 58.9332 74.1665 58.2282H74.1592ZM53.1016 42.9269C53.3236 42.3644 53.7567 41.8932 54.3172 41.8457C71.6262 40.4285 70.396 49.4836 70.396 49.4836C70.3233 58.4839 57.7309 57.4538 54.1461 56.9717C53.6111 56.8986 53.2035 56.4311 52.9997 55.8832L53.1052 42.9269H53.1016ZM73.0492 69.6576C72.9764 78.815 57.8838 77.9749 53.855 77.595C53.2981 77.5439 53.0215 77.2188 53.0324 76.6562L52.9851 62.5165C52.9924 61.954 53.4255 61.4828 53.9823 61.4353C74.4758 59.6711 73.0455 69.6576 73.0455 69.6576H73.0492Z" fill="#FC6432"/>
</svg>
