<svg width="673" height="186" viewBox="0 0 673 186" fill="none" xmlns="http://www.w3.org/2000/svg">
<path d="M18.1305 169.989H71.8318V185.005H0.230136V115.393H18.1305V169.989Z" fill="black"/>
<path d="M157.346 136.276C157.346 163.227 107.821 156.166 103.446 169.989H156.351V185.005H78.3852V175.956C78.3852 147.017 139.445 153.481 139.445 137.669C139.445 131.901 135.766 129.415 120.352 129.415C104.937 129.415 97.8767 131.702 97.8767 142.74H79.9763C79.9763 119.569 96.2856 114.398 119.357 114.398C143.324 114.398 157.346 118.973 157.346 136.276Z" fill="black"/>
<path d="M333.679 169.989H387.38V185.005H315.779V115.393H333.679V169.989Z" fill="black"/>
<path d="M468.558 185.005L461.1 170.188H419.432L411.973 185.005H392.283L428.183 115.393H452.349L488.348 185.005H468.558ZM426.095 156.862H454.437L440.316 128.619L426.095 156.862Z" fill="black"/>
<path d="M569.101 147.216C575.068 150.895 578.947 156.663 578.947 164.718C578.947 176.453 572.085 185.005 556.273 185.005H492.627V115.393H553.886C569.698 115.393 574.571 123.448 574.571 133.691C574.571 138.564 572.582 143.337 569.101 147.216ZM510.527 128.321V142.74H547.521C552.295 142.74 556.671 142.74 556.671 135.481C556.671 128.321 552.295 128.321 547.422 128.321H510.527ZM551.897 171.182C556.671 171.182 561.046 171.182 561.046 163.823C561.046 156.464 556.671 156.464 551.897 156.464H510.527V171.182H551.897Z" fill="black"/>
<path d="M583.893 161.039H601.793C601.793 168.398 607.76 171.779 630.434 171.779C649.229 171.779 654.898 169.691 654.898 164.221C654.898 158.453 650.92 157.459 628.345 156.365C598.014 154.972 585.981 150.199 585.981 134.586C585.981 119.271 601.594 114.398 627.649 114.398C653.903 114.398 669.815 120.962 669.815 138.166H651.914C651.914 130.509 644.257 128.619 625.66 128.619C608.058 128.619 603.881 130.31 603.881 135.481C603.881 140.851 608.058 141.845 628.345 143.039C655.793 144.531 672.798 146.022 672.798 163.624C672.798 182.221 655.196 186 629.439 186C600.898 186 583.893 181.127 583.893 161.039Z" fill="black"/>
<path d="M100.993 43.6424C108.873 48.5357 113.995 56.2062 113.995 66.9184C113.995 82.5239 104.933 93.8973 84.0517 93.8973H0V1.3225H80.8998C101.781 1.3225 108.217 12.0347 108.217 25.6565C108.217 32.1367 105.59 38.4847 100.993 43.6424ZM23.6395 18.515V37.6912H72.4946C78.7985 37.6912 84.5771 37.6912 84.5771 28.037C84.5771 18.515 78.7985 18.515 72.3633 18.515H23.6395ZM78.2732 75.5146C84.577 75.5146 90.3556 75.5146 90.3556 65.7281C90.3556 55.9417 84.577 55.9417 78.2732 55.9417H23.6395V75.5146H78.2732Z" fill="black"/>
<path d="M145.48 1.3225V93.8973H121.84V1.3225H145.48Z" fill="black"/>
<path d="M266.176 1.3225V21.2922H221.523V93.8973H197.884V21.2922H153.231V1.3225H266.176Z" fill="black"/>
<path d="M268.274 47.4777C268.274 16.7957 285.61 0 326.06 0C362.701 0 381.087 14.0185 383.451 40.7329H359.418C357.185 25.7887 345.759 19.9697 326.06 19.9697C302.026 19.9697 291.914 28.566 291.914 47.4777C291.914 66.5216 302.157 75.2501 326.06 75.2501C345.628 75.2501 357.185 69.2989 359.418 54.2224H383.451C381.087 81.0691 362.701 95.2198 326.06 95.2198C285.61 95.2198 268.274 78.2919 268.274 47.4777Z" fill="black"/>
<path d="M448.541 95.2198C408.091 95.2198 390.755 78.2919 390.755 47.4777C390.755 16.7957 408.091 0 448.541 0C488.859 0 506.326 16.928 506.326 47.4777C506.326 78.1596 488.859 95.2198 448.541 95.2198ZM448.541 75.2501C473.1 75.2501 482.687 66.3894 482.687 47.4777C482.687 28.6982 473.231 19.9697 448.541 19.9697C423.851 19.9697 414.395 28.566 414.395 47.4777C414.395 66.5216 423.982 75.2501 448.541 75.2501Z" fill="black"/>
<path d="M538.574 1.3225V93.8973H514.935V1.3225H538.574Z" fill="black"/>
<path d="M643.871 1.3225H667.51V93.8973H635.334L572.69 24.4662V93.8973H549.05V1.3225H581.095L643.871 70.8859V1.3225Z" fill="black"/>
<path d="M206.299 124.803C215.628 118.502 226.665 115.131 237.965 115.131H293.843L238.053 152.813H164.83L206.299 124.803Z" fill="#FC6432"/>
<path fill-rule="evenodd" clip-rule="evenodd" d="M209.348 161.639L174.333 185.289H235.631C243.4 185.289 250.987 182.971 257.401 178.639L303.346 147.607H260.48L239.706 161.639H209.348Z" fill="#FC6432"/>
</svg>
