<svg width="120" height="120" viewBox="0 0 120 120" fill="none" xmlns="http://www.w3.org/2000/svg">
<path d="M86.3897 58.2282C86.2041 58.1807 86.2186 57.936 86.4079 57.8922C91.4557 57.0265 92.5293 51.1017 92.5548 48.4389C92.6385 38.1017 81.7167 36.7648 78.2665 36.6004C77.6878 36.5712 77.262 36.0817 77.2657 35.5082L77.2875 27.1837C77.2984 26.5773 76.8362 26.1207 76.2321 26.1098L73.9538 26.0915C73.3497 26.0805 72.8329 26.5371 72.8256 27.1435V35.4571C72.822 36.0635 72.287 36.4945 71.6865 36.4981H66.3001C65.696 36.4908 65.2775 36.0525 65.2738 35.4534L65.292 27.1179C65.2993 26.5116 64.8153 26.0257 64.2111 26.0148L61.9365 26.0002C61.3324 25.9892 60.8483 26.4787 60.8374 27.085L60.7792 35.3548C60.7683 35.9612 60.266 36.5018 59.6692 36.5054L56.976 36.4835H49.4279C48.8237 36.4726 48.2887 36.8415 48.2815 37.4478L48.3106 40.1545C48.3033 40.7609 48.7873 41.2138 49.3915 41.2248L55.422 41.2722C56.0261 41.2832 56.4992 41.7727 56.5029 42.3754L56.4556 76.3458C56.4446 76.9521 55.7422 77.4233 55.1417 77.4306L49.9119 77.3904C49.3951 77.3831 48.9438 77.7484 48.8383 78.2671L48.2487 81.2368C48.114 81.9052 48.7473 82.654 49.4206 82.6577L59.3125 82.6723C59.9166 82.6832 60.3279 83.1216 60.3315 83.7206L60.3206 92.6333C60.3097 93.2396 60.7974 93.7254 61.4015 93.7364L63.6798 93.7547C64.2839 93.7656 64.899 93.2762 64.9063 92.6698L64.8844 83.7571C64.8953 83.1508 65.3284 82.6577 65.9289 82.654L70.9222 82.6686C71.5263 82.6796 72.0177 83.191 72.0213 83.79V92.721C72.0104 93.3273 72.4471 93.8204 73.0476 93.8277L75.3259 93.846C75.93 93.8569 76.4141 93.3017 76.425 92.6954L76.4322 83.9361C76.4359 83.3188 76.9964 82.7819 77.6041 82.8038C81.9605 82.9426 93.5593 83.0631 95.7102 71.7287C97.6099 61.7312 89.6615 58.9332 86.3969 58.2282H86.3897ZM65.3321 42.9269C65.5541 42.3644 65.9872 41.8932 66.5476 41.8457C83.8566 40.4285 82.6265 49.4836 82.6265 49.4836C82.5537 58.4839 69.9614 57.4538 66.3766 56.9717C65.8416 56.8986 65.434 56.4311 65.2302 55.8832L65.3357 42.9269H65.3321ZM85.2796 69.6576C85.2069 78.815 70.1142 77.9749 66.0854 77.595C65.5286 77.5439 65.252 77.2188 65.2629 76.6562L65.2156 62.5165C65.2229 61.954 65.656 61.4828 66.2128 61.4353C86.7063 59.6711 85.276 69.6576 85.276 69.6576H85.2796Z" fill="#FC6432"/>
<path d="M50.9964 65.2224V63.8973C50.9964 59.5021 48.3242 56.7715 44.0177 56.7715H30.9462C29.7204 56.7715 29.1997 56.2751 29.1997 55.1142V53.895C29.1997 52.986 30.1615 52.2048 30.9462 52.2048H50.6239V46.7692H30.9462C26.7915 46.7692 24 49.6348 24 53.895V55.1142C24 59.6664 26.5311 62.2764 30.9462 62.2764H44.0213C45.2869 62.2764 45.8003 62.7474 45.8003 63.8973V65.2224C45.8003 66.1313 44.8204 66.9125 44.0213 66.9125H24.3146V72.3846H44.0213C48.1941 72.3846 51 69.508 51 65.2224H50.9964Z" fill="#FC6432"/>
<circle cx="60" cy="60" r="58.5" fill="#FD9D41" fill-opacity="0.05" stroke="#FC6432" stroke-width="3"/>
</svg>
