<svg width="121" height="23" viewBox="0 0 121 23" fill="none" xmlns="http://www.w3.org/2000/svg">
<path fill-rule="evenodd" clip-rule="evenodd" d="M15.5179 7.53341C15.4302 7.38349 15.4427 7.19609 15.5429 7.04617L19.7261 0.862031C19.8389 0.687127 19.8514 0.474742 19.7512 0.299837C19.651 0.112439 19.4631 0.0124932 19.2627 0.0124932H17.6345C17.4592 0.0124932 17.2838 0.0999457 17.1711 0.262357L12.2866 7.50842C12.1613 7.69582 11.9609 7.79576 11.7355 7.79576H11.1218C10.8963 7.79576 10.6959 7.68332 10.5707 7.50842L5.71118 0.249864C5.61099 0.0874525 5.42312 0 5.24778 0H3.61959C3.4192 0 3.2188 0.112439 3.13113 0.299837C3.03094 0.487235 3.05598 0.69962 3.15618 0.862031L7.33937 7.05866C7.43957 7.19609 7.45209 7.38349 7.36442 7.53341C7.27675 7.69582 7.12646 7.78327 6.95111 7.78327H0.551079C0.237966 7.78327 0 8.03313 0 8.33297V9.68224C0 9.99457 0.250491 10.2319 0.551079 10.2319H22.3312C22.6443 10.2319 22.8823 9.98207 22.8823 9.68224V8.33297C22.8823 8.04563 22.6694 7.82075 22.3939 7.78327C22.3688 7.78327 22.3438 7.78327 22.3187 7.78327H15.9312C15.7559 7.78327 15.593 7.69582 15.5179 7.53341ZM10.5832 15.4916L5.69866 22.7376C5.59846 22.9001 5.4106 22.9875 5.23525 22.9875H3.60706C3.40667 22.9875 3.2188 22.8751 3.11861 22.7002C3.01841 22.5253 3.03094 22.3004 3.14366 22.138L7.31432 15.9538C7.41452 15.8039 7.42704 15.629 7.33937 15.4666C7.2517 15.3167 7.10141 15.2167 6.92606 15.2167H0.551079C0.250491 15.2167 0 14.9794 0 14.667V13.3178C0 13.0179 0.237966 12.7681 0.551079 12.7681H22.2811C22.2811 12.7681 22.3187 12.7681 22.3312 12.7681C22.6318 12.7681 22.8823 13.0054 22.8823 13.3178V14.667C22.8823 14.9669 22.6443 15.2167 22.3312 15.2167H15.9437C15.7559 15.2167 15.6056 15.3042 15.5304 15.4666C15.4427 15.629 15.4553 15.8039 15.5555 15.9413L19.7387 22.138C19.8389 22.3004 19.8639 22.5128 19.7637 22.7002C19.6635 22.8876 19.4756 23 19.2752 23H17.6471C17.4592 23 17.2964 22.9125 17.1962 22.7626L12.3116 15.5166C12.1864 15.3292 11.986 15.2292 11.7605 15.2292H11.1468C10.9214 15.2292 10.721 15.3417 10.5957 15.5166L10.5832 15.4916Z" fill="#141414"/>
<path fill-rule="evenodd" clip-rule="evenodd" d="M74.7323 6.65879H72.7034C72.5781 6.65879 72.4779 6.74624 72.4529 6.87118L72.2274 8.54527C71.2004 7.32093 69.6349 6.48389 67.3804 6.48389C65.3014 6.48389 63.4728 7.25847 62.1828 8.62023C60.8802 9.98198 60.1162 11.9059 60.1162 14.1922C60.1162 16.6159 60.8802 18.5523 62.1828 19.8766C63.4853 21.2009 65.3014 21.9005 67.3804 21.9005C69.6474 21.9005 71.1879 20.951 72.2149 19.7517L72.4529 21.5007C72.4654 21.6257 72.5781 21.7131 72.7034 21.7131H74.7323C74.8701 21.7131 74.9828 21.6007 74.9828 21.4632V6.90866C74.9828 6.77123 74.8701 6.65879 74.7323 6.65879ZM64.2869 17.9027C63.4853 17.0157 63.0094 15.7289 63.0094 14.1922C63.0094 12.6555 63.4853 11.3812 64.2869 10.4817C65.0885 9.5947 66.2282 9.06998 67.5934 9.06998C68.9585 9.06998 70.0857 9.5947 70.8873 10.4942C71.6889 11.3937 72.1523 12.693 72.1523 14.2422C72.1523 15.7913 71.6889 17.0157 70.8998 17.9027C70.1108 18.7897 68.9711 19.3019 67.5934 19.3019C66.2157 19.3019 65.0759 18.7772 64.2744 17.8902L64.2869 17.9027Z" fill="#141414"/>
<path d="M114.838 12.6933L114.65 12.6683C112.558 12.406 111.481 12.2061 111.481 10.9318C111.481 9.7449 112.684 8.98281 114.562 8.98281C116.441 8.98281 117.706 9.95729 117.869 11.369L117.919 11.5814H120.574L120.724 11.394V11.2941C120.486 8.30818 118.182 6.50916 114.562 6.47168H114.487C112.608 6.47168 110.98 7.05886 109.903 8.10829C109.089 8.90786 108.663 9.94479 108.663 11.0942C108.663 14.3424 111.506 14.9796 114.675 15.3793C116.979 15.6542 118.182 15.8666 118.182 17.4157C118.182 18.6026 116.892 19.4022 114.963 19.4022C112.796 19.4022 111.281 18.3027 111.206 16.6661V16.5662L111.055 16.4288H108.35V16.6911C108.413 19.9019 110.955 21.9008 114.963 21.9008C118.52 21.9008 121 19.9893 121 17.2533C121 13.7302 117.956 13.0806 114.838 12.6933Z" fill="#141414"/>
<path fill-rule="evenodd" clip-rule="evenodd" d="M107.585 21.3384L101.686 12.9055L107.16 7.08364C107.222 7.00868 107.247 6.90873 107.21 6.80879C107.172 6.72134 107.084 6.65887 106.984 6.65887H104.179C104.116 6.65887 104.041 6.68386 103.991 6.73383L97.0022 14.1048V1.48668C97.0022 1.34926 96.8895 1.23682 96.7518 1.23682H94.4097C94.2719 1.23682 94.1592 1.34926 94.1592 1.48668V21.4758C94.1592 21.6132 94.2719 21.7257 94.4097 21.7257H96.7518C96.8895 21.7257 97.0022 21.6132 97.0022 21.4758V17.7154L99.6449 14.9544L104.342 21.6132C104.392 21.6757 104.467 21.7132 104.542 21.7132H107.373C107.46 21.7132 107.548 21.6632 107.598 21.5758C107.636 21.4883 107.636 21.3884 107.585 21.3134V21.3384Z" fill="#141414"/>
<path fill-rule="evenodd" clip-rule="evenodd" d="M91.3292 16.2036H88.9871C88.8744 16.2036 88.7742 16.2911 88.7366 16.4035C88.5362 17.303 88.0728 18.0276 87.4216 18.5273C86.7703 19.0271 85.9061 19.3144 84.8791 19.3144C83.5515 19.3144 82.4493 18.7897 81.6728 17.8902C80.8963 16.9907 80.4329 15.7039 80.4329 14.1672C80.4329 12.6305 80.8963 11.3562 81.6728 10.4692C82.4493 9.5822 83.5515 9.06998 84.8791 9.06998C86.8579 9.06998 88.2732 10.1944 88.699 11.9309C88.7241 12.0434 88.8243 12.1183 88.937 12.1183H91.3167C91.3918 12.1183 91.467 12.0808 91.5045 12.0309C91.5546 11.9684 91.5672 11.8934 91.5546 11.831C91.2541 10.2069 90.5151 8.87009 89.3879 7.9331C88.2607 6.99611 86.7452 6.48389 84.9542 6.48389C82.7499 6.48389 80.8837 7.24597 79.5687 8.60773C78.2536 9.957 77.5146 11.881 77.5146 14.1672C77.5146 16.4535 78.2411 18.3774 79.5311 19.7517C80.8086 21.1009 82.6247 21.888 84.7914 21.9005C84.8164 21.9005 84.8415 21.9005 84.8665 21.9005C86.6576 21.9005 88.173 21.3883 89.3253 20.4388C90.4775 19.5018 91.2415 18.14 91.5546 16.4909C91.5672 16.416 91.5546 16.341 91.5045 16.2911C91.4544 16.2286 91.3918 16.2036 91.3167 16.2036H91.3292Z" fill="#141414"/>
<path fill-rule="evenodd" clip-rule="evenodd" d="M59.2144 19.077H56.6594C56.0958 19.077 55.7826 18.9645 55.5948 18.7771C55.4069 18.5772 55.3067 18.2399 55.3067 17.6527V9.30728H58.751C58.8887 9.30728 59.0014 9.19485 59.0014 9.05742V6.92108C59.0014 6.78366 58.8887 6.67122 58.751 6.67122H55.3067V2.8358C55.3067 2.69838 55.194 2.58594 55.0562 2.58594H52.7141C52.5764 2.58594 52.4636 2.69838 52.4636 2.8358V6.67122H50.084C49.9462 6.67122 49.8335 6.78366 49.8335 6.92108V9.05742C49.8335 9.19485 49.9462 9.30728 50.084 9.30728H52.4636V17.6777C52.4636 18.9895 52.7141 20.014 53.3905 20.7136C54.0543 21.4132 55.0938 21.7255 56.5216 21.7255H59.2144C59.3521 21.7255 59.4649 21.6131 59.4649 21.4757V19.3393C59.4649 19.2019 59.3521 19.0895 59.2144 19.0895V19.077Z" fill="#141414"/>
<path fill-rule="evenodd" clip-rule="evenodd" d="M46.638 11.5437C45.348 10.6942 43.6446 10.2694 42.0164 10.0071C40.501 9.74471 39.1859 9.50734 38.2466 9.0326C37.7831 8.80772 37.4199 8.52037 37.1694 8.18306C36.9315 7.83325 36.7937 7.40848 36.7937 6.85878C36.7937 5.85932 37.1694 5.12222 37.8583 4.61C38.5471 4.09778 39.5742 3.82293 40.9018 3.82293C43.4943 3.82293 45.3104 5.27214 45.5734 7.43346C45.5859 7.5584 45.6986 7.65834 45.8239 7.65834H48.2787C48.3538 7.65834 48.4165 7.63336 48.4666 7.58338C48.5167 7.53341 48.5417 7.47094 48.5292 7.39598C48.4039 5.5345 47.6024 3.94786 46.2748 2.83596C44.9472 1.72407 43.0935 1.08691 40.9018 1.08691C38.8227 1.08691 37.0567 1.67409 35.7917 2.71103C34.5268 3.76046 33.8003 5.24715 33.8003 7.02119C33.8003 9.04509 34.6771 10.3569 35.9796 11.2189C37.2571 12.0684 38.9479 12.4682 40.5636 12.7431C42.0916 13.0054 43.4192 13.2553 44.3836 13.7425C44.8595 13.9799 45.2227 14.2673 45.4732 14.6296C45.7237 14.9919 45.8615 15.4291 45.8615 16.0163C45.8615 17.0158 45.4231 17.7903 44.6716 18.3275C43.9076 18.8648 42.818 19.1646 41.5029 19.1646C40.0125 19.1646 38.7726 18.7398 37.8833 18.0027C36.9941 17.2656 36.443 16.2162 36.3428 14.9419C36.3428 14.817 36.2301 14.7045 36.0923 14.7045H33.625C33.5624 14.7045 33.4872 14.7295 33.4497 14.7795C33.3996 14.8294 33.3745 14.8919 33.3745 14.9669C33.4497 17.0033 34.2387 18.7398 35.6415 19.9766C37.0442 21.2135 39.0356 21.9131 41.4654 21.9131C43.6196 21.9131 45.4607 21.2884 46.7632 20.214C48.0783 19.1271 48.8423 17.5904 48.8423 15.7789C48.8423 13.7425 47.9531 12.4307 46.6505 11.5562L46.638 11.5437Z" fill="#141414"/>
</svg>
